<svg xmlns="http://www.w3.org/2000/svg" viewBox="0 0 750 500"><defs><style>.cls-1{fill:#fbf8e4;}.cls-2{fill:#dd973d;}.cls-3{fill:#343743;}.cls-4{fill:#4a4e5b;}.cls-16,.cls-20,.cls-22,.cls-23,.cls-24,.cls-25,.cls-26,.cls-27,.cls-28,.cls-29,.cls-30,.cls-31,.cls-32,.cls-5,.cls-7{fill:none;}.cls-22,.cls-23,.cls-32,.cls-5{stroke:#343743;}.cls-16,.cls-20,.cls-24,.cls-32,.cls-5,.cls-7{stroke-miterlimit:10;}.cls-6{fill:#eec141;}.cls-20,.cls-7{stroke:#fbf8e4;}.cls-8{fill:#de5831;}.cls-9{fill:#952315;}.cls-10{fill:#599dd3;}.cls-11{fill:#4070b2;}.cls-12{fill:#c6f2e1;}.cls-13{fill:#a2e0b9;}.cls-14{fill:#5596b1;}.cls-15{fill:#f3d43f;}.cls-16{stroke:#fcfffd;}.cls-16,.cls-20,.cls-32{stroke-width:0.75px;}.cls-17{fill:#4f8a49;}.cls-18{fill:#64af5d;}.cls-19{fill:#fcfffd;}.cls-21{fill:#72c6d1;}.cls-22,.cls-23,.cls-25,.cls-26,.cls-27,.cls-28,.cls-29,.cls-30,.cls-31{stroke-linecap:round;stroke-linejoin:round;}.cls-23,.cls-24{stroke-width:2px;}.cls-24,.cls-31{stroke:#72c6d1;}.cls-25{stroke:#eec141;}.cls-25,.cls-26,.cls-27,.cls-28,.cls-29,.cls-30,.cls-31{stroke-width:1.5px;}.cls-26{stroke:#fff;}.cls-27{stroke:#de5831;}.cls-28{stroke:#952315;}.cls-29{stroke:#4f8a49;}.cls-30{stroke:#4070b2;}</style></defs><title>e</title><g id="BACKGROUND"><rect class="cls-1" width="750" height="500"/></g><g id="OBJECTS"><path class="cls-2" d="M37.33,162.46C66.84,159,92.3,133.54,95.72,104c2-17.23-2.14-36.92,8.91-50.3,15.59-18.85,45.54-9,69.88-11.41,26.76-2.67,46.22-20.41,63-42.32H0V161.61C12.41,162.21,25.32,163.87,37.33,162.46Z"/><path class="cls-2" d="M750,269c-18.44,14.35-41.78,23.54-54.19,43.25-20.57,32.67-3.43,82.34-30.93,109.45-28.89,28.48-79.49,6.56-117,22-19.57,8-33.61,25.65-44.05,44.06-2.25,4-4.37,8.07-6.31,12.28H750Z"/><path class="cls-2" d="M420.34,465.15c18.84-1.45,20.29,25.37,0,26.1C402.71,491.88,401.49,466.6,420.34,465.15Z"/><path class="cls-2" d="M709.72,17.15c14.54-1.12,15.66,19.57,0,20.13C696.12,37.77,695.18,18.27,709.72,17.15Z"/><path class="cls-2" d="M137,411.5c12.83-1,13.81,17.27,0,17.76C125,429.69,124.19,412.49,137,411.5Z"/><path class="cls-2" d="M304.77,8.8c11-.85,11.86,14.83,0,15.25C294.46,24.42,293.75,9.65,304.77,8.8Z"/><path class="cls-2" d="M642.45,19c5.75-.44,6.19,7.75,0,8C637.07,27.14,636.7,19.43,642.45,19Z"/><path class="cls-2" d="M121,67.66c5.75-.44,6.19,7.75,0,8C115.63,75.82,115.26,68.1,121,67.66Z"/><path class="cls-2" d="M19.52,478.38c5.75-.44,6.19,7.74,0,8C14.14,486.54,13.76,478.82,19.52,478.38Z"/><path class="cls-2" d="M750,154.87c-31.27,4.11-29.32,46.15,0,46.92Z"/><path class="cls-2" d="M37.68,198c23.54-1.81,25.35,31.69,0,32.59C15.66,231.41,14.14,199.84,37.68,198Z"/><path class="cls-2" d="M590.86,402.08c5.76-.44,6.2,7.74,0,8C585.48,410.23,585.11,402.52,590.86,402.08Z"/><path class="cls-3" d="M528.63,72.76s5.39,22.77,7.83,24.16,32.37,2.67,50.41-8S610,72.73,609.32,68.81s-12.8-27.33-12.8-27.33Z"/><path class="cls-4" d="M575,77c4.83-3.37,42.75-51.12,38.75-53.73s-58.86-.36-63.9,2.25-48.45,40.76-47.9,44.31S570.14,80.33,575,77Z"/><path class="cls-5" d="M501.92,69.78s56.89,13.15,71.83,7.08c11.47-4.67,40.63-52.29,40.63-52.29"/><path class="cls-6" d="M564.5,43.88S606.77,29.22,611.08,33s7.84,21.62,7.84,21.62,14.74,7.46,19,12.47L635,69.91,619.75,59.28,631.85,72s-10,11.37-13,8.07-2.08-25-2.08-25l-7.53-20.49-44.64,12Z"/><path class="cls-5" d="M536.46,96.92s47.51,8.87,73.4-27.18l-6.6-15.56"/><path class="cls-7" d="M512.4,62.1s33.34-32.57,39-34.11,35.91-3.34,35.91-3.34"/><path class="cls-5" d="M618,57.17s.14,16.9,3.44,22.64"/><path class="cls-5" d="M564.6,46.5s43.88-13.15,44.64-12S616.77,55,616.77,55"/><path class="cls-8" d="M152.63,463.74S45.94,395.65,45.48,396.48s-12.5,19-11.62,19.45c2.12,1.16,107,67.12,107.91,66.16S152.63,463.74,152.63,463.74Z"/><path class="cls-9" d="M152.63,463.74S45.94,395.65,45.48,396.48c-.18.33-2.13,3.3-4.38,6.83l108.39,65.88C151.26,466.13,152.63,463.74,152.63,463.74Z"/><line class="cls-5" x1="70.63" y1="427.32" x2="64.58" y2="435.76"/><line class="cls-5" x1="71.61" y1="431.93" x2="67.76" y2="437.59"/><line class="cls-5" x1="74.6" y1="433.73" x2="70.75" y2="439.39"/><line class="cls-5" x1="77.6" y1="435.52" x2="73.75" y2="441.19"/><line class="cls-5" x1="80.59" y1="437.32" x2="76.74" y2="442.98"/><line class="cls-5" x1="56.57" y1="418.52" x2="50.52" y2="426.96"/><line class="cls-5" x1="57.55" y1="423.13" x2="53.7" y2="428.79"/><line class="cls-5" x1="60.54" y1="424.92" x2="56.69" y2="430.59"/><line class="cls-5" x1="63.54" y1="426.72" x2="59.68" y2="432.38"/><line class="cls-5" x1="66.53" y1="428.51" x2="62.68" y2="434.18"/><line class="cls-5" x1="41.92" y1="408.97" x2="35.86" y2="417.41"/><line class="cls-5" x1="42.9" y1="413.58" x2="39.04" y2="419.24"/><line class="cls-5" x1="45.89" y1="415.37" x2="42.04" y2="421.03"/><line class="cls-5" x1="48.88" y1="417.17" x2="45.03" y2="422.83"/><line class="cls-5" x1="51.88" y1="418.96" x2="48.02" y2="424.63"/><line class="cls-5" x1="85.69" y1="436.44" x2="79.63" y2="444.88"/><line class="cls-5" x1="86.66" y1="441.04" x2="82.81" y2="446.71"/><line class="cls-5" x1="89.66" y1="442.84" x2="85.8" y2="448.5"/><line class="cls-5" x1="92.65" y1="444.64" x2="88.8" y2="450.3"/><line class="cls-5" x1="95.65" y1="446.43" x2="91.79" y2="452.1"/><line class="cls-5" x1="100.74" y1="445.55" x2="94.68" y2="453.99"/><line class="cls-5" x1="101.72" y1="450.16" x2="97.86" y2="455.82"/><line class="cls-5" x1="104.71" y1="451.95" x2="100.86" y2="457.62"/><line class="cls-5" x1="107.7" y1="453.75" x2="103.85" y2="459.41"/><line class="cls-5" x1="110.7" y1="455.54" x2="106.84" y2="461.21"/><line class="cls-5" x1="115.79" y1="454.66" x2="109.74" y2="463.1"/><line class="cls-5" x1="116.77" y1="459.27" x2="112.91" y2="464.93"/><line class="cls-5" x1="119.76" y1="461.06" x2="115.91" y2="466.73"/><line class="cls-5" x1="122.76" y1="462.86" x2="118.9" y2="468.52"/><line class="cls-5" x1="125.75" y1="464.66" x2="121.9" y2="470.32"/><line class="cls-5" x1="130.84" y1="463.77" x2="124.79" y2="472.21"/><line class="cls-5" x1="131.82" y1="468.38" x2="127.97" y2="474.04"/><line class="cls-5" x1="134.81" y1="470.18" x2="130.96" y2="475.84"/><line class="cls-5" x1="137.81" y1="471.97" x2="133.96" y2="477.64"/><line class="cls-5" x1="140.8" y1="473.77" x2="136.95" y2="479.43"/><path class="cls-10" d="M652.84,222.07l-2.11-18.37s49.64-29.52,72.57-3.26-9.54,62.66-53.92,66.68l-7.12-7.38-3.88-14.86s59.36-15.16,51.59-25.35-48.59,10.56-51,9S652.84,222.07,652.84,222.07Z"/><path class="cls-10" d="M652.84,222.07l-2.11-18.37s49.64-29.52,72.57-3.26-9.54,62.66-53.92,66.68l-7.12-7.38-3.88-14.86s59.36-15.16,51.59-25.35-48.59,10.56-51,9S652.84,222.07,652.84,222.07Z"/><path class="cls-8" d="M730.44,214.7l-20.77,4.51c.09.11.21.21.3.32,7.77,10.19-51.59,25.35-51.59,25.35l3.88,14.86,7.12,7.38C706.11,263.79,734.69,238.29,730.44,214.7Z"/><path class="cls-11" d="M702.61,211c-11.44-3.24-37.65,5.13-49.88,10.07l.11,1s3.73,4.87,6.14,6.45,42.31-18.7,50.7-9.29C709.84,215.84,708.29,212.63,702.61,211Z"/><path class="cls-12" d="M670.76,224.91,665.27,216l-1.77-18.59a117.56,117.56,0,0,0-12.77,6.29l2.11,18.37s3.73,4.87,6.14,6.45C659.75,229,664.46,227.23,670.76,224.91Z"/><path class="cls-13" d="M659.36,228.6l.47,0,.08,0a5.12,5.12,0,0,0,.57-.11l.19,0,.77-.21.24-.07.7-.21.34-.11.94-.32.57-.19.5-.18c1.74-.61,3.78-1.37,6-2.2l-5.3-8.6c-5,1.74-9.48,3.47-12.73,4.78l.09.79,0,.19a42.53,42.53,0,0,0,5.67,6.11c.16.13.32.24.47.34a.68.68,0,0,0,.29.07Z"/><path class="cls-9" d="M730.78,221.52c-14.91,27.55-68.52,38.22-68.52,38.22l7.12,7.38C702.59,264.11,729.13,243,730.78,221.52Z"/><path class="cls-12" d="M675.09,256.58l-3.75-15.08-.3-.19c-7.29,2.2-12.66,3.57-12.66,3.57l3.88,14.86,7.12,7.38A88.31,88.31,0,0,0,682.31,265Z"/><path class="cls-13" d="M673.32,266.67l2.51-.37.66-.12c.85-.15,1.69-.3,2.52-.47l.6-.13c.84-.18,1.68-.36,2.51-.56l.18,0-7.21-8.39,0-.13c-7.59,2.25-12.79,3.29-12.79,3.29l7.12,7.38c1.09-.1,2.16-.21,3.23-.35Z"/><path class="cls-5" d="M652.73,221.09s40.84-16.21,51.81-9c5.08,3.33,7.54,8.13,5.26,11.45-4.37,6.36-17.38,10.78-17.38,10.78"/><path class="cls-5" d="M658.38,244.88l3.88,14.86,7.12,7.38s48.52-4.41,59.87-38.33"/><line class="cls-7" x1="654.04" y1="217.94" x2="652.25" y2="204.65"/><path class="cls-7" d="M660.29,198.55s40-18.88,59.47-1.33"/><path class="cls-7" d="M685.26,253.11c12.43-4.57,32.61-13.18,39.06-22.88"/><path class="cls-7" d="M675.09,256.58s1.79-.54,4.72-1.54"/><path class="cls-14" d="M555.48,418.42c.48-2.08-106.57-46.6-107.72-44.45s-27.43,70.21-24.94,72.14S555,420.5,555.48,418.42Zm-105.93,6.09c.52-3.73,7.83-29.54,11.07-30.11s49.37,16,47.3,18.19S449,428.25,449.55,424.51Z"/><path class="cls-11" d="M424,446.19c13.28-.7,131-25.79,131.49-27.77.08-.34-2.68-1.79-7.34-4l-124.21,25a45.12,45.12,0,0,0-1.2,5.06Z"/><line class="cls-5" x1="534.07" y1="420.04" x2="539.12" y2="409.99"/><line class="cls-5" x1="532.25" y1="415.28" x2="535.42" y2="408.57"/><line class="cls-5" x1="528.75" y1="413.86" x2="531.91" y2="407.15"/><line class="cls-5" x1="525.24" y1="412.45" x2="528.41" y2="405.74"/><line class="cls-5" x1="521.74" y1="411.03" x2="524.9" y2="404.32"/><line class="cls-5" x1="516.44" y1="412.83" x2="521.49" y2="402.79"/><line class="cls-5" x1="514.62" y1="408.07" x2="517.78" y2="401.37"/><line class="cls-5" x1="511.11" y1="406.66" x2="514.28" y2="399.95"/><line class="cls-5" x1="507.61" y1="405.24" x2="510.77" y2="398.53"/><line class="cls-5" x1="504.1" y1="403.83" x2="507.27" y2="397.12"/><line class="cls-5" x1="498.8" y1="405.63" x2="503.86" y2="395.58"/><line class="cls-5" x1="496.98" y1="400.87" x2="500.15" y2="394.16"/><line class="cls-5" x1="493.48" y1="399.45" x2="496.64" y2="392.75"/><line class="cls-5" x1="489.97" y1="398.04" x2="493.14" y2="391.33"/><line class="cls-5" x1="486.47" y1="396.62" x2="489.63" y2="389.92"/><line class="cls-5" x1="481.17" y1="398.43" x2="486.22" y2="388.38"/><line class="cls-5" x1="479.35" y1="393.66" x2="482.51" y2="386.96"/><line class="cls-5" x1="475.84" y1="392.25" x2="479.01" y2="385.54"/><line class="cls-5" x1="472.34" y1="390.83" x2="475.5" y2="384.13"/><line class="cls-5" x1="468.83" y1="389.42" x2="472" y2="382.71"/><line class="cls-5" x1="463.54" y1="391.22" x2="468.59" y2="381.17"/><line class="cls-5" x1="461.72" y1="386.46" x2="464.88" y2="379.75"/><line class="cls-5" x1="458.21" y1="385.04" x2="461.38" y2="378.34"/><line class="cls-5" x1="454.71" y1="383.63" x2="457.87" y2="376.92"/><line class="cls-5" x1="451.2" y1="382.21" x2="454.37" y2="375.51"/><path class="cls-5" d="M553.65,417s-102.71-44.33-105.89-43c-2.49,1-16.8,43.27-22.71,62.18a62.93,62.93,0,0,0-2.23,10"/><path class="cls-5" d="M460.62,394.4s48.86,15.51,47.3,18.19-38.47,9.57-38.47,9.57"/><path class="cls-7" d="M555.48,418.42S460.26,440.7,456.59,441"/><path class="cls-12" d="M631.75,399.32s-3.77,1.47-5.17-1.87,16.46-11.68,18.57-8.37-2.25,6.65-2.25,6.65L654,416.45s25.25-3,34.84,21.65c7.58,19.53-7.24,35.18-32.9,39S609,445.49,640.83,423.63Z"/><path class="cls-5" d="M629.21,396.79s11.14-2.88,13.59-6.5"/><path class="cls-7" d="M638.75,428.1c.66-.53,1.36-1.06,2.1-1.57"/><path class="cls-7" d="M626.91,452.58a29.23,29.23,0,0,1,8.06-21q.82-.9,1.77-1.77"/><path class="cls-6" d="M630,448.63s3.14,31.18,30.89,24.22,30.19-40.42,12.49-48.76c0,0-12.92,17.34-23.07,21.66A42.29,42.29,0,0,1,630,448.63Z"/><path class="cls-15" d="M631.46,443.26c5-5.2,15.33-.07,25.76-7.71,5.24-3.84,12.51-14.89,16.14-11.46s-4.87,21.46-22.61,26.38C629.07,456.49,627.23,447.7,631.46,443.26Z"/><line class="cls-16" x1="653.77" y1="447.21" x2="659.63" y2="445.24"/><line class="cls-16" x1="654.9" y1="444.65" x2="658.73" y2="443.25"/><line class="cls-16" x1="654.08" y1="442.74" x2="657.91" y2="441.34"/><line class="cls-16" x1="653.25" y1="440.83" x2="657.09" y2="439.43"/><line class="cls-16" x1="652.43" y1="438.92" x2="656.27" y2="437.52"/><line class="cls-16" x1="657.5" y1="456.36" x2="663.36" y2="454.39"/><line class="cls-16" x1="658.63" y1="453.8" x2="662.46" y2="452.4"/><line class="cls-16" x1="657.81" y1="451.89" x2="661.64" y2="450.49"/><line class="cls-16" x1="656.98" y1="449.98" x2="660.82" y2="448.58"/><line class="cls-16" x1="656.16" y1="448.07" x2="660" y2="446.67"/><line class="cls-16" x1="661.25" y1="466.08" x2="667.12" y2="464.11"/><line class="cls-16" x1="662.38" y1="463.51" x2="666.22" y2="462.11"/><line class="cls-16" x1="661.56" y1="461.6" x2="665.39" y2="460.2"/><line class="cls-16" x1="660.74" y1="459.69" x2="664.57" y2="458.29"/><line class="cls-16" x1="659.92" y1="457.78" x2="663.75" y2="456.39"/><line class="cls-16" x1="649.67" y1="437.57" x2="655.53" y2="435.6"/><line class="cls-16" x1="650.8" y1="435.01" x2="654.63" y2="433.61"/><line class="cls-16" x1="649.97" y1="433.1" x2="653.81" y2="431.7"/><line class="cls-16" x1="649.15" y1="431.19" x2="652.99" y2="429.79"/><line class="cls-16" x1="648.33" y1="429.28" x2="652.16" y2="427.88"/><line class="cls-16" x1="645.56" y1="427.93" x2="651.43" y2="425.96"/><line class="cls-16" x1="646.69" y1="425.37" x2="650.53" y2="423.97"/><line class="cls-16" x1="645.87" y1="423.46" x2="649.71" y2="422.06"/><line class="cls-16" x1="645.05" y1="421.55" x2="648.88" y2="420.15"/><line class="cls-16" x1="644.23" y1="419.64" x2="648.06" y2="418.24"/><line class="cls-16" x1="641.46" y1="418.29" x2="647.32" y2="416.32"/><line class="cls-16" x1="642.59" y1="415.73" x2="646.43" y2="414.33"/><line class="cls-16" x1="641.77" y1="413.82" x2="645.6" y2="412.42"/><line class="cls-16" x1="640.95" y1="411.91" x2="644.78" y2="410.51"/><line class="cls-16" x1="640.13" y1="410" x2="643.96" y2="408.6"/><line class="cls-16" x1="637.36" y1="408.65" x2="643.22" y2="406.68"/><line class="cls-16" x1="638.49" y1="406.09" x2="642.32" y2="404.69"/><line class="cls-16" x1="637.67" y1="404.18" x2="641.5" y2="402.78"/><line class="cls-16" x1="636.85" y1="402.27" x2="640.68" y2="400.87"/><line class="cls-16" x1="636.03" y1="400.36" x2="639.86" y2="398.96"/><path class="cls-5" d="M636,472.12s13.19,12.24,34.37,1.49,27.48-26.93,11.41-47"/><path class="cls-5" d="M633,399.43s-5.85,1.9-6.39-2S638,389.5,638,389.5"/><path class="cls-5" d="M637.53,397.82s7.47-.74,7.85-6.88"/><path class="cls-5" d="M642.9,395.73,654,416.45s11,.52,14.5,1.79"/><path class="cls-12" d="M700.14,63.1s-5.21,1.17-4.64-2.54,19.84-10.07,21.39-7.12-2.35,3.84-2.35,3.84,21.43,67.59,20.67,72.43-9.63,9.82-14.86,4.68C716.13,130.24,700.14,63.1,700.14,63.1Z"/><path class="cls-9" d="M720.64,82.43s13,44.35,11.44,47-6.14,5.45-9.18,2.48c-1.87-1.84-14-45.41-14-45.41Z"/><path class="cls-8" d="M708.36,84.63c.49-2.44,3.62-1.8,6.38-2.23,3.18-.51,6-1.74,5.89.65C720.42,87.5,707.31,89.89,708.36,84.63Z"/><line class="cls-16" x1="717.81" y1="112.21" x2="723.37" y2="110.97"/><line class="cls-16" x1="719.09" y1="109.97" x2="722.74" y2="109.06"/><line class="cls-16" x1="718.53" y1="108.14" x2="722.17" y2="107.24"/><line class="cls-16" x1="717.96" y1="106.31" x2="721.6" y2="105.41"/><line class="cls-16" x1="717.39" y1="104.49" x2="721.04" y2="103.58"/><line class="cls-16" x1="720.33" y1="120.94" x2="725.89" y2="119.71"/><line class="cls-16" x1="721.62" y1="118.7" x2="725.26" y2="117.8"/><line class="cls-16" x1="721.05" y1="116.88" x2="724.7" y2="115.97"/><line class="cls-16" x1="720.48" y1="115.05" x2="724.13" y2="114.14"/><line class="cls-16" x1="719.92" y1="113.22" x2="723.56" y2="112.32"/><line class="cls-16" x1="722.83" y1="130.2" x2="728.38" y2="128.97"/><line class="cls-16" x1="724.11" y1="127.96" x2="727.76" y2="127.06"/><line class="cls-16" x1="723.55" y1="126.13" x2="727.19" y2="125.23"/><line class="cls-16" x1="722.98" y1="124.3" x2="726.62" y2="123.4"/><line class="cls-16" x1="722.41" y1="122.48" x2="726.06" y2="121.57"/><line class="cls-16" x1="714.99" y1="102.98" x2="720.55" y2="101.75"/><line class="cls-16" x1="716.28" y1="100.75" x2="719.92" y2="99.84"/><line class="cls-16" x1="715.71" y1="98.92" x2="719.35" y2="98.01"/><line class="cls-16" x1="715.14" y1="97.09" x2="718.79" y2="96.19"/><line class="cls-16" x1="714.58" y1="95.26" x2="718.22" y2="94.36"/><line class="cls-16" x1="712.17" y1="93.76" x2="717.73" y2="92.53"/><line class="cls-16" x1="713.46" y1="91.52" x2="717.1" y2="90.62"/><line class="cls-16" x1="712.89" y1="89.69" x2="716.54" y2="88.79"/><line class="cls-16" x1="712.33" y1="87.87" x2="715.97" y2="86.96"/><line class="cls-16" x1="711.76" y1="86.04" x2="715.4" y2="85.13"/><line class="cls-16" x1="709.36" y1="84.54" x2="714.91" y2="83.3"/><line class="cls-16" x1="710.64" y1="82.3" x2="714.29" y2="81.4"/><line class="cls-16" x1="710.08" y1="80.47" x2="713.72" y2="79.57"/><line class="cls-16" x1="709.51" y1="78.64" x2="713.15" y2="77.74"/><line class="cls-16" x1="708.94" y1="76.82" x2="712.59" y2="75.91"/><line class="cls-16" x1="706.54" y1="75.31" x2="712.1" y2="74.08"/><line class="cls-16" x1="707.82" y1="73.08" x2="711.47" y2="72.17"/><line class="cls-16" x1="707.26" y1="71.25" x2="710.9" y2="70.34"/><line class="cls-16" x1="706.69" y1="69.42" x2="710.34" y2="68.52"/><line class="cls-16" x1="706.13" y1="67.59" x2="709.77" y2="66.69"/><path class="cls-5" d="M707.56,94.09s10.12,37.9,12.79,40.3,7.88,2.9,11,.77c4.64-3.16,4.28-9.06,2.43-13.88"/><path class="cls-5" d="M705.24,62s-7.87,2.56-9.58.13c-2.29-3.24,9.22-7.29,9.22-7.29"/><path class="cls-5" d="M711.88,58.89s7.62-2.36,5-5.45c-2.28-2.71-8.21.52-8.21.52"/><path class="cls-5" d="M698.46,60.94S711.8,57,714.1,54.8"/><path class="cls-12" d="M66.27,16.18a5.05,5.05,0,0,1-3.06-6.7c1.77-5,25.87,5.58,25.6,9s-5.06,2.79-5.06,2.79L71.49,53.51S82,107.7,75.27,112s-60.69-9.89-61.78-24.32c-.73-9.62,41.3-40.43,41.17-41.25S66.27,16.18,66.27,16.18Z"/><path class="cls-7" d="M50.59,53.23a17,17,0,0,1,3.24-2"/><path class="cls-7" d="M24.66,75.32s14-12.85,22.91-19.82"/><path class="cls-17" d="M43.45,61s-27.8,24.85-25.62,28.2,49.49,23.38,54.62,17.27,2.34-35.55-1.24-36.37S43.45,61,43.45,61Z"/><path class="cls-18" d="M43.45,61c2.61-4.61,31,6.07,29.14,11.3C70.27,78.92,40.84,65.63,43.45,61Z"/><line class="cls-16" x1="51.18" y1="76.72" x2="57.57" y2="79.33"/><line class="cls-16" x1="54.01" y1="75.38" x2="58.26" y2="77"/><line class="cls-16" x1="54.71" y1="73.17" x2="58.96" y2="74.79"/><line class="cls-16" x1="55.41" y1="70.96" x2="59.66" y2="72.58"/><line class="cls-16" x1="56.11" y1="68.75" x2="60.37" y2="70.37"/><line class="cls-16" x1="47.65" y1="87.15" x2="54.03" y2="89.77"/><line class="cls-16" x1="50.48" y1="85.81" x2="54.73" y2="87.44"/><line class="cls-16" x1="51.18" y1="83.6" x2="55.43" y2="85.22"/><line class="cls-16" x1="51.88" y1="81.39" x2="56.13" y2="83.01"/><line class="cls-16" x1="52.58" y1="79.18" x2="56.83" y2="80.8"/><line class="cls-16" x1="43.73" y1="98.09" x2="50.11" y2="100.7"/><line class="cls-16" x1="46.56" y1="96.75" x2="50.81" y2="98.37"/><line class="cls-16" x1="47.26" y1="94.54" x2="51.51" y2="96.16"/><line class="cls-16" x1="47.96" y1="92.33" x2="52.21" y2="93.95"/><line class="cls-16" x1="48.66" y1="90.12" x2="52.91" y2="91.74"/><line class="cls-16" x1="54.76" y1="65.59" x2="61.15" y2="68.21"/><line class="cls-16" x1="57.59" y1="64.25" x2="61.84" y2="65.87"/><line class="cls-16" x1="58.29" y1="62.04" x2="62.54" y2="63.66"/><line class="cls-16" x1="58.99" y1="59.83" x2="63.24" y2="61.45"/><line class="cls-16" x1="59.69" y1="57.62" x2="63.94" y2="59.24"/><line class="cls-16" x1="58.34" y1="54.47" x2="64.72" y2="57.08"/><line class="cls-16" x1="61.17" y1="53.13" x2="65.42" y2="54.75"/><line class="cls-16" x1="61.87" y1="50.92" x2="66.12" y2="52.54"/><line class="cls-16" x1="62.57" y1="48.71" x2="66.82" y2="50.33"/><line class="cls-16" x1="63.27" y1="46.5" x2="67.52" y2="48.12"/><line class="cls-16" x1="61.92" y1="43.34" x2="68.3" y2="45.96"/><line class="cls-16" x1="64.75" y1="42" x2="69" y2="43.62"/><line class="cls-16" x1="65.45" y1="39.79" x2="69.7" y2="41.41"/><line class="cls-16" x1="66.15" y1="37.58" x2="70.4" y2="39.2"/><line class="cls-16" x1="66.85" y1="35.37" x2="71.1" y2="36.99"/><line class="cls-16" x1="65.5" y1="32.22" x2="71.88" y2="34.83"/><line class="cls-16" x1="68.33" y1="30.88" x2="72.58" y2="32.5"/><line class="cls-16" x1="69.03" y1="28.67" x2="73.28" y2="30.29"/><line class="cls-16" x1="69.73" y1="26.46" x2="73.98" y2="28.08"/><line class="cls-16" x1="70.43" y1="24.25" x2="74.68" y2="25.87"/><path class="cls-5" d="M73.2,19.36s-11.55-3.21-10-9.88S84.9,14.77,85.5,15"/><path class="cls-5" d="M67.77,11.48s13,5.41,16.27,6"/><path class="cls-5" d="M83.75,21.28,71.49,53.51s8.72,46,5.73,54"/><path class="cls-5" d="M13.49,87.68s2.8,11.32,31.28,20c26.42,8.08,30.5,4.29,30.5,4.29"/><path class="cls-6" d="M199.86,432.66c.62-1.48,40.88-62.59,44.84-62s76.71,52.54,77.07,54.95-43.83,65.2-45.64,65.61S199.24,434.14,199.86,432.66Z"/><path class="cls-5" d="M272.51,488.89s2.47,2.56,3.62,2.36,46.17-62.8,45.64-65.61-76.13-55.1-77.07-54.95-3.34,2.24-3.34,2.24"/><path class="cls-19" d="M194.07,434.39c.92-1,43.53-64.35,45.59-63.68s75,52.38,74.92,56.4-39.46,63.8-39.46,63.8Z"/><path class="cls-15" d="M190.52,435.58c.62-1.48,40.88-62.6,44.84-62s76.71,52.54,77.07,54.94-37.28,63.3-39.1,63.72S189.9,437.06,190.52,435.58Z"/><path class="cls-19" d="M226.37,438.4s-17-9.82-16.7-11.41,25.18-38.24,27.17-37.08,15.57,9.86,15.42,11.8S227.2,438.85,226.37,438.4Z"/><path class="cls-5" d="M191.9,436.82c-.12-1,78.36,57.26,81.43,55.45s40.84-60.87,39.1-63.72-61-44.44-61-44.44"/><path class="cls-4" d="M190.83,443.2S197,432.86,198,433.08s2.65,1,2.27,1.63-5.68,10-6.89,10.31A2.18,2.18,0,0,1,190.83,443.2Z"/><path class="cls-4" d="M196.79,447.16S203,436.82,204,437s2.65,1.05,2.27,1.64-5.68,10-6.89,10.31A2.21,2.21,0,0,1,196.79,447.16Z"/><path class="cls-4" d="M202.76,451.12S209,440.77,210,441s2.64,1,2.27,1.63-5.68,10-6.89,10.32A2.21,2.21,0,0,1,202.76,451.12Z"/><path class="cls-4" d="M208.73,455.07s6.19-10.34,7.19-10.12,2.64,1,2.27,1.63-5.68,10-6.89,10.31A2.2,2.2,0,0,1,208.73,455.07Z"/><path class="cls-4" d="M214.7,459s6.19-10.34,7.19-10.13,2.64,1.05,2.27,1.64-5.69,10-6.89,10.31A2.21,2.21,0,0,1,214.7,459Z"/><path class="cls-4" d="M220.67,463s6.19-10.35,7.19-10.13,2.64,1,2.27,1.63-5.69,10-6.89,10.32A2.21,2.21,0,0,1,220.67,463Z"/><path class="cls-4" d="M226.64,466.94s6.19-10.34,7.19-10.12,2.64,1,2.27,1.63-5.69,10-6.89,10.31A2.2,2.2,0,0,1,226.64,466.94Z"/><path class="cls-4" d="M232.61,470.9s6.19-10.34,7.19-10.13,2.64,1,2.27,1.64-5.69,10-6.89,10.31A2.2,2.2,0,0,1,232.61,470.9Z"/><path class="cls-4" d="M238.58,474.85s6.19-10.34,7.19-10.12,2.64,1,2.27,1.63-5.69,10-6.89,10.31A2.19,2.19,0,0,1,238.58,474.85Z"/><path class="cls-4" d="M244.55,478.81s6.19-10.34,7.18-10.13,2.65,1.05,2.28,1.64-5.69,10-6.89,10.31A2.19,2.19,0,0,1,244.55,478.81Z"/><path class="cls-4" d="M250.52,482.77s6.19-10.34,7.18-10.13,2.65,1,2.28,1.64-5.69,10-6.89,10.31A2.2,2.2,0,0,1,250.52,482.77Z"/><path class="cls-4" d="M256.49,486.72s6.18-10.34,7.18-10.12,2.65,1,2.28,1.63-5.69,10-6.89,10.31A2.19,2.19,0,0,1,256.49,486.72Z"/><path class="cls-4" d="M262.46,490.68s6.18-10.34,7.18-10.13,2.65,1.05,2.28,1.64-5.69,10-6.9,10.31A2.2,2.2,0,0,1,262.46,490.68Z"/><path class="cls-20" d="M191.78,443.28s5.76-8.38,6.48-9.08"/><path class="cls-20" d="M197.53,447.28s6.12-8.8,6.68-9.3"/><path class="cls-20" d="M203.94,451.39s5.62-8.81,6.31-9.44"/><path class="cls-20" d="M209.48,455.6s5.8-8.83,6.56-9.43"/><path class="cls-20" d="M215.68,459.38s6-8.58,6.75-9.39"/><path class="cls-20" d="M221.33,463.28a65.49,65.49,0,0,1,4-6.23"/><path class="cls-20" d="M227.62,467.1s3.81-6.16,4.63-7.05"/><path class="cls-20" d="M233.42,471.41s3.4-5.26,4.13-6.05"/><path class="cls-20" d="M239.37,475.19s3.44-5.86,4.38-6.61"/><path class="cls-20" d="M245.39,479.27s4-6.39,4.69-7.08"/><path class="cls-20" d="M251.45,483l4.16-6.12"/><path class="cls-20" d="M257.42,486.68s3.89-5.94,4.27-6.3"/><path class="cls-20" d="M263.8,490.92s4.58-6.63,4.93-7.07"/><path class="cls-5" d="M279.52,72.11c2.5-.66,4.22-1.07,4.22-1.07"/><path class="cls-14" d="M216.34,118.63s-29.24.54-37.62,2.41-23.81,10.67-25.76,7.72-10.35-65.64-7.76-67.5S191.32,43,205.3,54.72c0,0,21.79-26.75,46.87-26.94,0,0,40.56,58.67,36.88,60.82s-47.28,13.9-56.68,24.94Z"/><path class="cls-5" d="M176.93,121.59l39.41-3,16-5.09s12.84-7.93,19.37-11.56,36.37-11.76,37.31-13.38-6.24-14.55-6.24-14.55"/><path class="cls-12" d="M192,113.32c-7.41.87-35.95,13.65-36.71,11.88S149.11,57,149.11,57s22.15-10.22,30.57-10.51,25.62,8.26,25.62,8.26l17.5,62.48S199.45,112.46,192,113.32Z"/><path class="cls-12" d="M205.14,55.17c.48-.54,31.52-25.8,50.21-25.6,0,0,30,40.57,30.83,43.06,0,0-19,7.69-25.86,13.31S222.8,117.2,222.8,117.2Z"/><path class="cls-19" d="M205.3,54.72s8-14.11,15.92-18.33,16.09-10.2,26.39-10L283.74,71s-16.52,3.2-26.28,11.27-34.79,35.55-34.66,34.89S205.3,54.72,205.3,54.72Z"/><path class="cls-5" d="M205.3,54.72s6.29-12.15,15.92-18.33,26.39-10,26.39-10l11.92,13.77"/><path class="cls-12" d="M240,54.73s16.08-6.75,17.37-6.11,11.9,16.09,11.9,16.09-16.4,6.75-18.33,9.32Z"/><path class="cls-5" d="M222.19,117s-29-7.63-36.8-8.25-26.1,8.07-26.1,8.07L153.7,54s17.46-8,26-7.57,25.62,8.26,25.62,8.26Z"/><path class="cls-5" d="M222.19,117S257,81.48,262.45,78.14c2.39-1.47,6.76-3,10.92-4.28"/><path class="cls-5" d="M150.25,73.69l-1-14.64a4.3,4.3,0,0,0-4.06,2.21c-1.4,2.51,5.5,66.51,7.76,67.5s16.89-4.47,16.89-4.47"/><path class="cls-5" d="M209.74,59.24s15.12-16.08,21.87-18.66a87.73,87.73,0,0,1,14.47-3.86"/><path class="cls-5" d="M214.56,62.45S225.5,51.52,231,48.3s17.37-5.47,17.37-5.47"/><path class="cls-5" d="M215.21,69.85s12.22-9.65,20.9-11.58"/><path class="cls-5" d="M218.42,75.32s12.23-9.65,20.91-11.58"/><path class="cls-5" d="M222,81.43s12.22-9.65,20.91-11.58"/><path class="cls-14" d="M143.79,341.79c-2.14.7-77.9,26.4-80.29,24.31s-49.64-87.74-47.61-89,74-22.28,74-22.28S145.93,341.1,143.79,341.79Z"/><path class="cls-19" d="M92.9,249.54s54.34,82.73,53.29,84.27-73.27,28.46-77.82,25.75-50-85.05-50-87.29S92.9,249.54,92.9,249.54Z"/><path class="cls-5" d="M142,326.77s5.93,5.14,4.18,7S84.8,358.32,68.37,359.56c0,0-16.45-21.34-50-87.29l11.35-4.7"/><path class="cls-21" d="M149.51,327.8s-51.33-80.49-55.65-79.66-72.25,17.52-71.93,21.48,43.88,86,48.28,85.56S149.83,331.77,149.51,327.8Z"/><path class="cls-22" d="M95.56,263.52s43.72,61.06,40.69,62.23-61,24.19-63.36,22.58-36.58-63.92-34.63-66.07S95.56,263.52,95.56,263.52Z"/><path class="cls-23" d="M84.12,260.62s7.64-9.29-.74-15.31c-6.54-4.69-16.55,1.76-12.92,8"/><path class="cls-23" d="M72.7,264.92s7.64-9.29-.74-15.31c-6.54-4.69-16.55,1.76-12.92,8"/><path class="cls-23" d="M60.08,268.12s7.64-9.28-.74-15.3c-6.54-4.7-16.55,1.76-12.92,8"/><path class="cls-23" d="M48.68,273.08s7.64-9.28-.75-15.3c-6.54-4.7-16.54,1.75-12.92,8"/><path class="cls-23" d="M37.56,277.21s7.64-9.28-.75-15.3c-6.54-4.7-16.54,1.76-12.91,8"/><path class="cls-5" d="M79,251.72s-56.32,13.93-57,17.9,44.57,86.51,48.28,85.56c47.85-12.28,79.37-27.08,79.37-27.08"/><path class="cls-21" d="M436.29,24.49s11.71-8.53,12-7.23,1.41,7.28.54,8.08-9.66,6.46-9.66,6.46Z"/><path class="cls-10" d="M375.33,52s-6.91,4-6.49,5.32,8.8,17.35,10.59,16.83a36.52,36.52,0,0,0,5.76-3Z"/><path class="cls-10" d="M418.86,24.81s4.64-3.71,6.08-3.51,7.25,2.88,8.88,2.38,5.52-3.19,6.19-2.54,5.39,7,4.74,7.71-6.13,3.4-6.46,4.62.65,8-.81,9.3a48.46,48.46,0,0,1-6.23,3.74Z"/><path class="cls-20" d="M424.64,23.06s7.19,3.31,8.5,2.74,5.91-2.69,5.91-2.69"/><path class="cls-4" d="M371,56a3.78,3.78,0,0,1,1.29-5c10.94-6.86,47.93-29.87,49.47-28.19,1.82,2,14.25,22.35,12.63,23.62s-49.94,28.92-52,27.74C380.89,73.28,374,61.55,371,56Z"/><path class="cls-20" d="M426.65,49.18c-10.86,6.29-37.5,21.52-41.46,22"/><path class="cls-20" d="M431.25,46.51,429,47.85"/><path class="cls-24" d="M377.22,55.24S418.93,29.94,420.08,31s7.35,10,6.53,11-41.18,25.34-42.36,24.81S376.38,55.9,377.22,55.24Z"/><path class="cls-5" d="M431.24,39.11s-8.36-15.73-10.4-16.74-48.4,27.8-49.52,28.89-.93,7.24,7.89,17.46"/><path class="cls-5" d="M440,21.14s5.3,6.49,4.74,7.71-6.07,3.79-6.46,4.62,0,8.44-.81,9.3a17.83,17.83,0,0,1-3.23,2.13"/><path class="cls-20" d="M447.5,18s.88,6.36.59,6.88"/><path class="cls-5" d="M370.8,55s-2,1.28-2,2.31,9.06,17,10.19,17a4,4,0,0,0,2.36-1.18"/><path class="cls-25" d="M114.9,135.1s.14,11.12.72,12.11a1.91,1.91,0,0,0,3.29-.41c.49-1.57.64-21.55-.1-22.38s-4.64-1.92-5.54.47-.83,27,.33,28.45,6.36,1.07,7-.25,1.16-16.54,1.16-16.54"/><path class="cls-26" d="M571.21,475.44s9.46,5.84,10.61,5.89a1.91,1.91,0,0,0,1.41-3c-1.06-1.26-17.85-12.09-19-11.9s-4.11,2.88-2.57,4.93,22.32,15.14,24.2,15,4.31-4.8,3.55-6.07-13.34-9.83-13.34-9.83"/><path class="cls-27" d="M670.87,84.54s.14,11.12.72,12.12a1.9,1.9,0,0,0,3.28-.41c.5-1.57.64-21.56-.1-22.38s-4.63-1.93-5.54.47-.83,27,.33,28.44,6.36,1.08,7-.25S677.74,86,677.74,86"/><path class="cls-28" d="M347,28.4s-5.47,9.69-5.47,10.83a1.91,1.91,0,0,0,3,1.3c1.21-1.11,11.39-18.3,11.16-19.39s-3-4-5-2.38-14.27,22.88-14,24.75,5,4.13,6.2,3.32,9.31-13.71,9.31-13.71"/><path class="cls-29" d="M21.93,365.7s.14,11.12.72,12.11a1.91,1.91,0,0,0,3.29-.41c.49-1.57.64-21.55-.1-22.38s-4.64-1.92-5.55.48-.82,26.95.34,28.44,6.36,1.07,7-.25,1.16-16.54,1.16-16.54"/><path class="cls-30" d="M358.15,470.05s-8.89,6.69-9.35,7.75.72,2.93,2.28,2.4,17.76-12.22,18-13.31-1.19-4.87-3.66-4.19S343.18,478,342.66,479.78s2.9,5.77,4.36,5.52,14-8.84,14-8.84"/><path class="cls-31" d="M616.21,349.48s-8.89,6.68-9.35,7.74.72,2.93,2.28,2.4,17.76-12.22,18-13.31-1.19-4.87-3.66-4.19-22.23,15.27-22.75,17.08,2.9,5.77,4.36,5.52,14-8.84,14-8.84"/><path class="cls-12" d="M27.89,162s5.65,17.34,5.83,16.5-2.59-17.26-2.59-17.26Z"/><path class="cls-32" d="M28.21,163.38s5.27,15.68,5.51,15.15-1.13-9.29-1.13-9.29"/><path class="cls-9" d="M22.68,161.05l2.09-5s-6.31-7.66-4.42-8.52,11.82-3.56,12.32-1.92-1.08,7.51-.33,9a26.09,26.09,0,0,0,3.44,3.76l.68,3.17-13.33,3Z"/><line class="cls-32" x1="23.19" y1="164.59" x2="36.46" y2="161.5"/><path class="cls-8" d="M20.35,147.53c-.65.29-.34,1.38.36,2.69l12-2.59a6.12,6.12,0,0,0,0-2C32.17,144,22.23,146.66,20.35,147.53Z"/><line class="cls-5" x1="24.77" y1="156.05" x2="32.54" y2="154.26"/><line class="cls-5" x1="21.21" y1="149.88" x2="32.6" y2="147.63"/><path class="cls-32" d="M24.75,156.11s-5.2-7.44-4.4-8.58,11.41-2.75,12-2.41"/><path class="cls-12" d="M724.26,347.46s-3.64,17.87-3.06,17.23,6.25-16.3,6.25-16.3Z"/><path class="cls-32" d="M723.87,348.79s-3.14,16.24-2.67,15.9,3.59-8.64,3.59-8.64"/><path class="cls-17" d="M720.21,344l4.28-3.31s-1.72-9.77.35-9.6,12,2.73,11.67,4.41-4.64,6-4.71,7.64a26.76,26.76,0,0,0,1.15,4.95l-1,3.11-13.09-3.94Z"/><line class="cls-32" x1="718.91" y1="347.37" x2="731.97" y2="351.23"/><path class="cls-18" d="M724.84,331.12c-.7-.06-1,1-1,2.52l11.72,3.67a6.22,6.22,0,0,0,1-1.78C736.89,333.85,726.91,331.3,724.84,331.12Z"/><line class="cls-5" x1="724.49" y1="340.72" x2="732.13" y2="343"/><line class="cls-5" x1="724.43" y1="333.59" x2="735.45" y2="337.26"/><path class="cls-32" d="M724.44,340.76s-.86-9,.4-9.64,11.28,3.24,11.64,3.83"/><path class="cls-12" d="M177.92,468.43s9.2,15.76,9.2,14.89S180.93,467,180.93,467Z"/><path class="cls-32" d="M178.52,469.68s8.48,14.21,8.6,13.64-3.08-8.84-3.08-8.84"/><path class="cls-14" d="M172.62,468.58l1-5.33s-7.8-6.14-6.14-7.39,10.81-6,11.64-4.48.54,7.56,1.58,8.82a26,26,0,0,0,4.16,2.94l1.33,3-12.38,5.79Z"/><line class="cls-32" x1="173.87" y1="471.93" x2="186.18" y2="466.1"/><path class="cls-21" d="M167.47,455.86c-.56.43,0,1.42.93,2.55l11.18-5.07a6.13,6.13,0,0,0-.47-2C178.28,449.87,169.13,454.61,167.47,455.86Z"/><line class="cls-5" x1="173.61" y1="463.25" x2="180.82" y2="459.86"/><line class="cls-5" x1="168.81" y1="457.98" x2="179.47" y2="453.36"/><path class="cls-32" d="M173.6,463.31s-6.66-6.16-6.13-7.45,10.57-5.1,11.23-4.9"/><path class="cls-12" d="M487.79,31s-3.28,17.94-2.71,17.29S491,31.84,491,31.84Z"/><path class="cls-32" d="M487.43,32.3s-2.81,16.31-2.35,16,3.41-8.72,3.41-8.72"/><path class="cls-2" d="M483.67,27.63l4.22-3.4s-1.92-9.74.16-9.61,12.09,2.49,11.75,4.18-4.52,6.09-4.55,7.73a25.85,25.85,0,0,0,1.24,4.93l-.91,3.12-13.17-3.67Z"/><line class="cls-32" x1="482.44" y1="30.99" x2="495.58" y2="34.58"/><path class="cls-6" d="M488.05,14.62c-.71,0-.95,1.07-1,2.54l11.8,3.43a6.31,6.31,0,0,0,.92-1.79C500.14,17.11,490.12,14.76,488.05,14.62Z"/><line class="cls-5" x1="487.89" y1="24.23" x2="495.58" y2="26.35"/><line class="cls-5" x1="487.68" y1="17.1" x2="498.78" y2="20.54"/><path class="cls-32" d="M487.84,24.27s-1-9,.21-9.65,11.34,3,11.71,3.6"/></g></svg>